<svg width="252" height="151" viewBox="0 0 252 151" fill="none" xmlns="http://www.w3.org/2000/svg">
<g filter="url(#filter0_d_1_2)">
<path fill-rule="evenodd" clip-rule="evenodd" d="M59.9001 40.0926C59.5052 40.1586 57.5396 40.188 55.5315 40.1576C52.8936 40.1177 51.4454 40.1655 50.3115 40.3299C49.4486 40.4551 48.116 40.5575 47.3502 40.5575C45.5191 40.5575 45.122 40.8748 45.0267 42.4143C44.9861 43.0735 44.7805 43.948 44.5702 44.3578C44.3055 44.8735 44.3018 45.4932 44.5578 46.3698C44.8276 47.2937 44.8095 47.9594 44.4907 48.8289C44.0001 50.1677 44.151 53.4464 44.7427 54.3017C45.0009 54.6746 45.0249 55.6052 44.8156 57.1413C44.1735 61.8633 43.9853 65.7106 44.0893 72.0038C44.1481 75.5694 44.1807 78.8892 44.1619 79.381C44.143 79.8728 44.0846 82.7901 44.0328 85.864C43.9468 90.9625 43.9962 91.5143 44.5966 92.1537C45.2638 92.8643 45.6206 92.9738 47.5765 93.0674C48.1766 93.0962 49.0617 93.2063 49.5439 93.3124C50.2162 93.4603 51.5658 93.4782 55.3379 93.3895C58.0425 93.3257 60.5002 93.2837 60.7993 93.2959C61.0985 93.308 68.0636 93.3557 76.2772 93.4017C87.103 93.4624 91.4237 93.4387 91.9828 93.3157C92.4879 93.2047 92.9031 93.196 93.1845 93.2908C93.7911 93.4952 94.8771 93.5379 96.2002 93.4098C97.9668 93.2387 112.02 93.177 112.748 93.3372C113.101 93.4148 115.63 93.5151 118.369 93.56C124.506 93.6609 124.969 93.6537 125.566 93.45C125.88 93.3431 126.708 93.326 127.96 93.4007C129.013 93.4636 131.18 93.5062 132.775 93.4956C134.371 93.4849 137.063 93.4658 138.758 93.4531C140.453 93.4405 142.276 93.5013 142.81 93.5884C143.463 93.6952 144.813 93.7031 146.95 93.6124C148.693 93.5384 150.261 93.5138 150.433 93.5575C150.605 93.6011 153.066 93.6667 155.902 93.7031C158.738 93.7394 162.608 93.806 164.503 93.8513C166.397 93.8965 169.987 93.9215 172.48 93.9071C174.973 93.8925 177.257 93.8913 177.556 93.9043C180.346 94.0259 191.092 94.0339 192.241 93.9153C193.039 93.8329 194.345 93.7391 195.143 93.7066C195.941 93.6743 197.28 93.5634 198.118 93.4603C199.434 93.2981 199.766 93.306 200.552 93.5177C201.899 93.8806 203.156 93.8181 204.998 93.2971C206.113 92.9817 206.883 92.6102 207.382 92.1461C208.081 91.4972 208.106 91.2862 207.855 88.178C207.709 86.3725 207.615 84.4157 207.646 83.8294C207.68 83.1894 207.519 82.6429 207.244 82.4618C206.91 82.2421 206.888 82.0661 207.163 81.8138C207.686 81.3329 207.786 76.4739 207.299 75.2265C207.078 74.663 206.666 74.0172 206.382 73.7916C205.916 73.4211 205.932 73.3566 206.549 73.1269C207.996 72.5889 207.878 69.8869 206.305 67.5567C205.797 66.8037 205.814 66.7039 206.609 65.6938C207.292 64.827 207.441 64.3327 207.398 63.0617C207.332 61.0602 206.955 55.6174 206.768 53.9706C206.689 53.2738 206.759 52.095 206.923 51.3509C207.094 50.579 207.078 49.4669 206.886 48.7615C206.684 48.0211 206.681 47.4579 206.879 47.3573C207.239 47.1736 207.131 42.9906 206.748 42.2714C206.206 41.2558 205.908 41.1536 203.493 41.1536C202.27 41.1536 201.079 41.0752 200.847 40.9795C200.592 40.8751 198.788 40.7828 196.332 40.7487C191.816 40.6859 171.459 40.5807 163.777 40.5804C161.085 40.5804 154.477 40.5807 149.092 40.5812C143.708 40.5818 136.31 40.5396 132.653 40.4876C127.767 40.4183 125.868 40.44 125.487 40.5698C125.143 40.6871 124.393 40.7111 123.252 40.6414C121.777 40.5511 116.865 40.5259 111.744 40.5824C110.249 40.5989 103.113 40.4891 97.0592 40.3566C95.1646 40.315 89.1915 40.2335 83.7859 40.1752C76.1126 40.0926 73.896 40.1101 73.6785 40.2548C73.4598 40.4001 73.334 40.3965 73.0961 40.2381C72.8634 40.0829 71.3753 40.0284 66.7053 40.0041C63.3575 39.9867 60.295 40.0265 59.9001 40.0926Z" fill="url(#paint0_linear_1_2)" shape-rendering="crispEdges"/>
</g>
<g filter="url(#filter1_d_1_2)">
<path fill-rule="evenodd" clip-rule="evenodd" d="M59.9001 49.0926C59.5052 49.1586 57.5396 49.188 55.5315 49.1576C52.8936 49.1177 51.4454 49.1655 50.3115 49.3299C49.4486 49.4551 48.116 49.5575 47.3502 49.5575C45.5191 49.5575 45.122 49.8748 45.0267 51.4143C44.9861 52.0735 44.7805 52.948 44.5702 53.3578C44.3055 53.8735 44.3018 54.4932 44.5578 55.3698C44.8276 56.2937 44.8095 56.9594 44.4907 57.8289C44.0001 59.1677 44.151 62.4464 44.7427 63.3017C45.0009 63.6746 45.0249 64.6052 44.8156 66.1413C44.1735 70.8633 43.9853 74.7106 44.0893 81.0038C44.1481 84.5694 44.1807 87.8892 44.1619 88.381C44.143 88.8728 44.0846 91.7901 44.0328 94.864C43.9468 99.9625 43.9962 100.514 44.5966 101.154C45.2638 101.864 45.6206 101.974 47.5765 102.067C48.1766 102.096 49.0617 102.206 49.5439 102.312C50.2162 102.46 51.5658 102.478 55.3379 102.389C58.0425 102.326 60.5002 102.284 60.7993 102.296C61.0985 102.308 68.0636 102.356 76.2772 102.402C87.103 102.462 91.4237 102.439 91.9828 102.316C92.4879 102.205 92.9031 102.196 93.1845 102.291C93.7911 102.495 94.8771 102.538 96.2002 102.41C97.9668 102.239 112.02 102.177 112.748 102.337C113.101 102.415 115.63 102.515 118.369 102.56C124.506 102.661 124.969 102.654 125.566 102.45C125.88 102.343 126.708 102.326 127.96 102.401C129.013 102.464 131.18 102.506 132.775 102.496C134.371 102.485 137.063 102.466 138.758 102.453C140.453 102.44 142.276 102.501 142.81 102.588C143.463 102.695 144.813 102.703 146.95 102.612C148.693 102.538 150.261 102.514 150.433 102.557C150.605 102.601 153.066 102.667 155.902 102.703C158.738 102.739 162.608 102.806 164.503 102.851C166.397 102.897 169.987 102.922 172.48 102.907C174.973 102.892 177.257 102.891 177.556 102.904C180.346 103.026 191.092 103.034 192.241 102.915C193.039 102.833 194.345 102.739 195.143 102.707C195.941 102.674 197.28 102.563 198.118 102.46C199.434 102.298 199.766 102.306 200.552 102.518C201.899 102.881 203.156 102.818 204.998 102.297C206.113 101.982 206.883 101.61 207.382 101.146C208.081 100.497 208.106 100.286 207.855 97.178C207.709 95.3725 207.615 93.4157 207.646 92.8294C207.68 92.1894 207.519 91.6429 207.244 91.4618C206.91 91.2421 206.888 91.0661 207.163 90.8138C207.686 90.3329 207.786 85.4739 207.299 84.2265C207.078 83.663 206.666 83.0172 206.382 82.7916C205.916 82.4211 205.932 82.3566 206.549 82.1269C207.996 81.5889 207.878 78.8869 206.305 76.5567C205.797 75.8037 205.814 75.7039 206.609 74.6938C207.292 73.827 207.441 73.3327 207.398 72.0617C207.332 70.0602 206.955 64.6174 206.768 62.9706C206.689 62.2738 206.759 61.095 206.923 60.3509C207.094 59.579 207.078 58.4669 206.886 57.7615C206.684 57.0211 206.681 56.4579 206.879 56.3573C207.239 56.1736 207.131 51.9906 206.748 51.2714C206.206 50.2558 205.908 50.1536 203.493 50.1536C202.27 50.1536 201.079 50.0752 200.847 49.9795C200.592 49.8751 198.788 49.7828 196.332 49.7487C191.816 49.6859 171.459 49.5807 163.777 49.5804C161.085 49.5804 154.477 49.5807 149.092 49.5812C143.708 49.5818 136.31 49.5396 132.653 49.4876C127.767 49.4183 125.868 49.44 125.487 49.5698C125.143 49.6871 124.393 49.7111 123.252 49.6414C121.777 49.5511 116.865 49.5259 111.744 49.5824C110.249 49.5989 103.113 49.4891 97.0592 49.3566C95.1646 49.315 89.1915 49.2335 83.7859 49.1752C76.1126 49.0926 73.896 49.1101 73.6785 49.2548C73.4598 49.4001 73.334 49.3965 73.0961 49.2381C72.8634 49.0829 71.3753 49.0284 66.7053 49.0041C63.3575 48.9867 60.295 49.0265 59.9001 49.0926Z" fill="url(#paint1_linear_1_2)" shape-rendering="crispEdges"/>
</g>
<defs>
<filter id="filter0_d_1_2" x="0.799999" y="0.799999" width="250.4" height="140.4" filterUnits="userSpaceOnUse" color-interpolation-filters="sRGB">
<feFlood flood-opacity="0" result="BackgroundImageFix"/>
<feColorMatrix in="SourceAlpha" type="matrix" values="0 0 0 0 0 0 0 0 0 0 0 0 0 0 0 0 0 0 127 0" result="hardAlpha"/>
<feOffset dy="4"/>
<feGaussianBlur stdDeviation="21.6"/>
<feComposite in2="hardAlpha" operator="out"/>
<feColorMatrix type="matrix" values="0 0 0 0 0.843137 0 0 0 0 0.109804 0 0 0 0 0.137255 0 0 0 0.25 0"/>
<feBlend mode="normal" in2="BackgroundImageFix" result="effect1_dropShadow_1_2"/>
<feBlend mode="normal" in="SourceGraphic" in2="effect1_dropShadow_1_2" result="shape"/>
</filter>
<filter id="filter1_d_1_2" x="0.799999" y="9.8" width="250.4" height="140.4" filterUnits="userSpaceOnUse" color-interpolation-filters="sRGB">
<feFlood flood-opacity="0" result="BackgroundImageFix"/>
<feColorMatrix in="SourceAlpha" type="matrix" values="0 0 0 0 0 0 0 0 0 0 0 0 0 0 0 0 0 0 127 0" result="hardAlpha"/>
<feOffset dy="4"/>
<feGaussianBlur stdDeviation="21.6"/>
<feComposite in2="hardAlpha" operator="out"/>
<feColorMatrix type="matrix" values="0 0 0 0 0.843137 0 0 0 0 0.109804 0 0 0 0 0.137255 0 0 0 0.25 0"/>
<feBlend mode="normal" in2="BackgroundImageFix" result="effect1_dropShadow_1_2"/>
<feBlend mode="normal" in="SourceGraphic" in2="effect1_dropShadow_1_2" result="shape"/>
</filter>
<linearGradient id="paint0_linear_1_2" x1="124" y1="46.1237" x2="124" y2="88.9897" gradientUnits="userSpaceOnUse">
<stop stop-color="#D71C23"/>
<stop offset="1" stop-color="#D71C23" stop-opacity="0.55"/>
</linearGradient>
<linearGradient id="paint1_linear_1_2" x1="124" y1="55.1237" x2="124" y2="97.9897" gradientUnits="userSpaceOnUse">
<stop stop-color="#D71C23"/>
<stop offset="1" stop-color="#D71C23" stop-opacity="0.55"/>
</linearGradient>
</defs>
</svg>
